<?xml version="1.0" standalone="no"?>
<!DOCTYPE svg PUBLIC "-//W3C//DTD SVG 20010904//EN"
 "http://www.w3.org/TR/2001/REC-SVG-20010904/DTD/svg10.dtd">
<svg version="1.0" xmlns="http://www.w3.org/2000/svg"
 width="400.000000pt" height="400.000000pt" viewBox="0 0 400.000000 400.000000"
 preserveAspectRatio="xMidYMid meet">
<metadata>
Created by potrace 1.14, written by Peter Selinger 2001-2017
</metadata>
<g transform="translate(0.000000,400.000000) scale(0.100000,-0.100000)"
fill="#000000" stroke="none">
<path d="M0 2000 l0 -2000 2000 0 2000 0 0 2000 0 2000 -2000 0 -2000 0 0
-2000z m2140 1956 c30 -8 93 -28 140 -44 60 -22 127 -35 224 -46 207 -24 267
-58 478 -273 141 -145 203 -238 296 -443 117 -259 162 -416 194 -670 17 -142
17 -616 0 -735 -34 -228 -71 -411 -152 -755 -32 -135 -65 -283 -75 -330 -23
-112 -22 -110 -40 -110 -19 0 -20 -26 0 -34 22 -8 18 -36 -5 -36 -18 0 -20 -7
-20 -57 0 -88 -23 -50 -27 44 -2 56 -7 81 -18 89 -21 16 -19 34 4 34 21 0 23
31 3 38 -7 2 -12 24 -12 50 0 34 -3 43 -11 35 -11 -11 -27 -129 -28 -205 -1
-25 -5 -28 -36 -28 -19 0 -35 -4 -35 -10 0 -5 -4 -10 -10 -10 -5 0 -10 7 -10
16 0 12 -7 15 -25 12 -14 -3 -28 -1 -31 3 -3 5 9 9 26 9 l31 0 -3 88 -2 87
-52 0 c-29 0 -55 3 -59 7 -4 4 -10 28 -13 53 -6 53 -22 42 -22 -15 l0 -35 -73
-3 -72 -3 -24 66 c-13 36 -25 64 -27 62 -5 -4 11 -85 21 -109 6 -14 2 -18 -18
-18 -17 0 -27 -7 -31 -22 l-7 -23 -11 22 c-14 29 -44 30 -51 2 -7 -25 -31 -20
-35 7 -2 10 -10 33 -18 51 -8 17 -14 44 -15 60 0 15 -4 46 -9 68 -7 28 -8 4
-4 -82 4 -106 2 -123 -11 -123 -8 0 -15 5 -15 11 0 6 -16 52 -36 101 -19 49
-40 117 -46 151 -10 53 -28 101 -28 71 0 -10 28 -120 58 -231 11 -40 17 -73
13 -73 -14 0 -7 -85 7 -86 6 -1 19 -2 28 -3 8 0 12 -5 9 -11 -3 -5 -35 -10
-71 -10 l-64 0 0 -75 c0 -59 -3 -75 -14 -75 -11 0 -13 9 -9 34 5 30 3 35 -18
38 -31 4 -38 29 -7 26 21 -3 23 1 23 37 0 39 1 40 38 43 40 3 48 20 21 46 -14
15 -14 16 0 16 9 0 16 5 16 11 0 7 -14 8 -40 4 -26 -4 -40 -3 -40 4 0 19 -38
12 -45 -9 -8 -26 -25 -26 -32 0 -3 13 -14 20 -29 20 -21 0 -23 -3 -19 -42 2
-24 11 -45 20 -50 21 -12 19 -25 -5 -31 -12 -3 -20 -14 -20 -26 0 -17 6 -21
34 -21 36 0 46 -12 46 -55 0 -13 8 -29 18 -34 12 -8 -7 -10 -73 -10 -65 0 -84
3 -67 9 21 9 23 15 20 72 -3 57 -5 63 -25 66 -18 3 -23 -2 -23 -17 0 -12 -5
-21 -11 -21 -6 0 -9 14 -7 33 3 28 7 32 36 35 30 3 33 6 31 30 -2 15 0 32 4
39 10 16 -6 24 -45 23 -62 -2 -183 7 -210 14 -23 7 -29 18 -47 85 -25 94 -60
311 -70 446 -8 95 -8 96 -9 30 -2 -67 18 -238 53 -464 9 -57 13 -106 10 -109
-2 -3 -13 3 -24 12 -18 17 -19 16 -26 -13 -9 -43 -24 -39 -31 9 -4 22 -11 40
-16 40 -5 0 -7 4 -3 10 3 5 -7 9 -22 9 -26 0 -110 7 -124 10 -4 0 -9 15 -12
31 -6 25 -11 30 -36 30 -39 0 -49 -18 -16 -26 29 -7 28 -28 -1 -32 -33 -5
-111 158 -149 313 -4 17 -11 73 -15 125 l-7 95 -1 -76 c-2 -96 20 -224 53
-314 17 -44 24 -78 20 -94 -4 -14 -3 -23 1 -19 8 9 44 -9 44 -22 0 -22 -48 -9
-66 18 -20 31 -40 52 -48 52 -3 0 -6 -29 -6 -65 l0 -65 60 0 c53 0 60 2 60 20
0 25 18 26 27 2 4 -9 12 -21 20 -25 18 -11 17 -27 -2 -27 -8 0 -15 -7 -15 -15
0 -20 -12 -19 -31 3 -20 23 -126 19 -132 -6 -4 -14 -6 -12 -12 6 -6 18 -14 22
-36 20 -35 -4 -44 16 -9 20 37 5 42 14 34 70 -6 50 -7 51 -48 57 -22 4 -50 9
-61 11 -16 4 -17 3 -5 -5 8 -5 11 -13 8 -17 -12 -11 -58 25 -58 45 0 11 -8 39
-19 63 -23 54 -51 175 -51 222 0 19 -5 38 -11 42 -16 9 -3 -107 22 -208 10
-42 19 -86 19 -97 0 -12 5 -21 10 -21 6 0 10 -9 10 -21 0 -18 -4 -20 -44 -14
l-44 7 -9 -39 c-8 -34 -12 -38 -38 -37 -17 1 -58 2 -92 3 -35 1 -63 5 -63 10
0 5 24 9 53 8 101 -1 120 2 113 18 -3 8 1 32 8 53 14 38 14 38 -18 52 -17 7
-42 26 -56 42 -28 31 -122 62 -139 45 -13 -13 -31 0 -31 22 0 10 -7 24 -16 32
-13 10 -17 10 -24 -1 -5 -8 -12 -12 -15 -9 -14 15 -35 186 -36 299 l-2 125 -9
-105 c-5 -58 -7 -144 -4 -192 3 -77 2 -85 -11 -73 -8 8 -26 15 -39 15 -20 0
-24 4 -19 19 5 16 -1 19 -47 24 -29 2 -55 3 -56 2 -2 -2 -6 -31 -9 -64 -7 -73
-23 -71 -23 4 0 51 -1 54 -27 57 -16 2 -28 9 -28 17 0 11 15 14 68 12 42 -1
67 2 67 8 0 6 -7 11 -15 11 -9 0 -18 7 -21 15 -4 8 -18 15 -33 15 -57 0 -69
10 -80 60 -13 62 -1 176 44 390 18 91 54 262 79 380 24 118 59 285 76 370 109
535 196 784 343 984 235 318 508 497 827 541 129 18 321 18 390 1z m-1431
-3046 c-2 -19 -6 -42 -11 -51 -9 -20 -78 -31 -78 -13 0 7 15 14 33 16 27 2 32
7 32 28 0 19 -6 26 -25 28 -39 6 -49 22 -12 22 26 0 33 5 38 27 l7 27 9 -24
c5 -14 8 -41 7 -60z m84 -127 c7 -9 5 -13 -7 -13 -11 0 -16 8 -15 28 0 15 3
21 6 12 3 -8 10 -21 16 -27z m-56 -9 c-3 -3 -12 -4 -19 -1 -8 3 -5 6 6 6 11 1
17 -2 13 -5z m951 -68 c13 -8 16 -54 6 -80 -9 -24 -24 -9 -24 25 0 28 -1 29
-49 29 -53 0 -81 7 -81 21 0 14 127 18 148 5z m242 -81 c0 -31 3 -35 25 -35
22 0 25 4 25 35 0 36 16 47 26 20 4 -8 3 -31 0 -50 -6 -32 -10 -35 -41 -35
-31 0 -34 -3 -37 -32 -2 -17 -8 -33 -15 -35 -11 -4 -18 140 -7 158 12 20 24 7
24 -26z m-677 -19 c4 -39 -8 -50 -15 -13 -4 24 1 61 8 54 3 -2 6 -21 7 -41z
m157 -31 c0 -79 -10 -95 -59 -95 -16 0 -21 -6 -21 -25 0 -26 -1 -26 85 -30 22
-2 45 -3 51 -4 7 0 15 -16 18 -35 4 -23 14 -36 29 -41 19 -6 20 -8 4 -12 -30
-8 -47 5 -47 36 0 34 -17 41 -102 41 l-58 0 0 74 c0 41 5 78 10 81 6 4 10 -6
10 -23 0 -29 14 -42 46 -42 11 0 14 17 14 75 0 43 4 75 10 75 6 0 10 -32 10
-75z m-310 29 c0 -23 3 -24 55 -24 30 0 55 -4 55 -10 0 -5 -7 -7 -15 -4 -9 4
-16 -3 -21 -20 -8 -34 1 -46 37 -46 16 0 29 -5 29 -11 0 -6 -7 -8 -16 -5 -9 4
-27 -1 -40 -9 -13 -9 -24 -14 -25 -13 0 2 -2 24 -3 50 -1 26 -4 50 -8 53 -12
12 -49 -6 -57 -28 -6 -15 -8 -2 -9 41 -1 37 3 60 9 57 5 -4 9 -17 9 -31z m-80
-13 c0 -6 -4 -13 -10 -16 -5 -3 -10 1 -10 9 0 9 5 16 10 16 6 0 10 -4 10 -9z
m1218 -42 l-5 -24 -10 25 c-12 28 -6 47 9 32 5 -5 8 -20 6 -33z m-713 21 c-3
-5 -15 -10 -25 -10 -10 0 -22 5 -25 10 -4 6 7 10 25 10 18 0 29 -4 25 -10z
m1195 -5 c-7 -8 -10 -28 -8 -45 3 -20 0 -30 -9 -30 -8 0 -13 13 -13 35 0 32
-2 35 -30 35 -29 0 -30 -1 -30 -50 0 -27 -4 -50 -10 -50 -11 0 -14 103 -3 113
3 4 31 7 61 7 47 0 53 -2 42 -15z m64 7 c2 -4 1 -13 -3 -20 -4 -8 -11 -5 -19
8 -10 16 -10 20 2 20 8 0 17 -4 20 -8z m94 -83 c-22 -5 -47 -5 -60 1 -18 7 -9
9 37 8 56 0 58 -1 23 -9z m57 -68 c-3 -6 -21 -10 -38 -10 -27 2 -28 2 -7 6 14
3 29 9 34 14 12 11 20 4 11 -10z m140 0 c3 -1 5 -4 5 -8 -1 -5 -14 -7 -30 -5
-25 3 -30 0 -30 -18 0 -12 -4 -18 -10 -15 -11 7 -14 48 -4 57 3 4 19 2 35 -2
16 -5 32 -9 34 -9z m-1085 -1 c0 -5 -15 -9 -32 -9 l-33 1 30 8 c17 4 31 8 33
9 1 0 2 -3 2 -9z m86 -76 c-4 -10 -22 -14 -68 -12 -35 0 -47 3 -28 5 68 7 77
12 85 45 l8 33 4 -28 c3 -16 2 -35 -1 -43z m1018 -32 l-7 -27 -7 25 c-3 14 -4
33 -2 44 5 17 6 17 14 1 6 -9 7 -28 2 -43z"/>
<path d="M3078 3313 c6 -2 18 -2 25 0 6 3 1 5 -13 5 -14 0 -19 -2 -12 -5z"/>
<path d="M3170 3299 c0 -4 11 -26 24 -50 26 -48 71 -182 110 -324 14 -49 25
-80 25 -68 1 30 -65 255 -100 339 -27 64 -58 119 -59 103z"/>
<path d="M2896 3100 c-20 -22 -36 -43 -36 -47 0 -4 3 -3 8 3 4 5 23 26 41 47
19 20 32 37 29 37 -3 0 -22 -18 -42 -40z"/>
<path d="M2836 3005 c-9 -26 -7 -32 5 -12 6 10 9 21 6 23 -2 3 -7 -2 -11 -11z"/>
<path d="M1831 2823 c-13 -68 -37 -296 -46 -438 -3 -55 -8 -134 -10 -175 -3
-45 -2 -69 4 -60 4 8 11 74 14 147 7 150 21 308 43 467 16 120 13 149 -5 59z"/>
<path d="M2615 2624 c-166 -60 -171 -70 -15 -30 53 14 99 21 104 16 5 -5 14
-3 22 4 9 10 26 11 61 5 71 -12 83 -11 83 6 0 19 -8 22 -82 33 -52 8 -65 6
-173 -34z"/>
<path d="M3285 2603 c-71 -9 -70 -27 3 -36 39 -5 42 -4 42 19 0 13 -3 23 -7
23 -5 -1 -21 -4 -38 -6z"/>
<path d="M2680 2526 c-5 -15 -10 -31 -10 -36 0 -4 -16 -45 -35 -90 -19 -44
-31 -78 -26 -75 13 7 94 216 87 222 -3 3 -10 -6 -16 -21z"/>
<path d="M2421 2484 c0 -11 3 -14 6 -6 3 7 2 16 -1 19 -3 4 -6 -2 -5 -13z"/>
<path d="M2411 2444 c0 -11 3 -14 6 -6 3 7 2 16 -1 19 -3 4 -6 -2 -5 -13z"/>
<path d="M2401 2404 c0 -11 3 -14 6 -6 3 7 2 16 -1 19 -3 4 -6 -2 -5 -13z"/>
<path d="M2392 2350 c0 -14 2 -19 5 -12 2 6 2 18 0 25 -3 6 -5 1 -5 -13z"/>
<path d="M2776 2290 c-86 -59 -154 -118 -161 -140 -6 -20 22 -80 37 -80 12 0
10 28 -2 35 -21 13 -8 44 34 83 24 22 53 45 64 51 20 11 21 10 10 -20 -6 -17
-9 -70 -6 -119 3 -73 2 -87 -9 -78 -8 7 -13 7 -13 0 0 -5 16 -24 37 -42 l36
-32 30 73 c19 49 31 99 35 147 5 75 12 84 46 55 17 -16 17 -14 -3 15 -13 18
-26 45 -30 60 -11 40 -38 37 -105 -8z m79 -21 c17 -53 -32 -281 -60 -281 -28
1 -46 172 -24 229 12 34 48 73 65 73 7 0 16 -9 19 -21z"/>
<path d="M2375 2284 c-4 -22 -11 -55 -16 -74 -10 -38 -12 -87 -4 -78 7 7 36
180 31 185 -3 3 -8 -12 -11 -33z"/>
<path d="M2580 2290 c-6 -11 -8 -20 -6 -20 3 0 10 9 16 20 6 11 8 20 6 20 -3
0 -10 -9 -16 -20z"/>
<path d="M2663 2245 c-15 -13 -23 -25 -17 -25 6 0 21 11 34 25 30 32 19 32
-17 0z"/>
<path d="M2239 2109 c-1 -141 3 -392 7 -439 1 -19 3 -59 3 -89 1 -66 14 -60
15 6 l1 48 86 0 c110 0 135 -15 145 -82 8 -55 -10 -210 -31 -259 -17 -42 -52
-57 -123 -52 -60 3 -59 6 -38 -102 9 -48 16 -64 27 -61 7 3 33 6 57 9 47 4 72
-9 72 -39 0 -13 7 -19 24 -19 13 0 57 -15 97 -34 60 -28 95 -37 182 -46 244
-25 334 22 430 221 58 120 135 333 153 424 8 39 26 119 41 179 l26 110 -22 15
c-12 9 -39 30 -59 46 -20 17 -31 22 -23 13 11 -15 10 -19 -10 -27 -24 -11
-563 -135 -717 -166 -71 -14 -97 -15 -168 -5 -47 6 -96 15 -109 20 -22 8 -25
6 -31 -25 -3 -19 -10 -32 -16 -29 -5 3 -8 106 -7 246 0 131 -2 242 -5 245 -3
4 -6 -45 -7 -108z"/>
<path d="M3223 2203 c-3 -6 -3 -18 -1 -27 3 -12 9 -12 52 2 27 9 51 22 53 27
5 15 -98 13 -104 -2z"/>
<path d="M2459 2107 c-48 -60 -110 -147 -105 -147 5 0 95 114 120 153 25 37
17 34 -15 -6z"/>
<path d="M3212 2110 c0 -19 2 -27 5 -17 2 9 2 25 0 35 -3 9 -5 1 -5 -18z"/>
<path d="M1773 2050 c0 -41 2 -58 4 -37 2 20 2 54 0 75 -2 20 -4 3 -4 -38z"/>
<path d="M2326 2030 c-9 -52 -19 -106 -22 -120 l-6 -25 21 25 c12 15 18 33 15
43 -3 11 -1 47 6 82 7 35 10 70 8 77 -3 7 -12 -30 -22 -82z"/>
<path d="M3250 2016 c0 -2 8 -10 18 -17 15 -13 16 -12 3 4 -13 16 -21 21 -21
13z"/>
<path d="M1764 1815 c0 -60 1 -84 3 -52 2 32 2 81 0 110 -2 29 -3 3 -3 -58z"/>
<path d="M1750 1467 c0 -59 3 -107 8 -107 9 0 9 197 -1 206 -4 4 -7 -41 -7
-99z"/>
<path d="M2263 1480 c0 -25 2 -35 4 -22 2 12 2 32 0 45 -2 12 -4 2 -4 -23z"/>
<path d="M2272 1365 c0 -16 2 -22 5 -12 2 9 2 23 0 30 -3 6 -5 -1 -5 -18z"/>
<path d="M1063 1255 c0 -22 2 -30 4 -17 2 12 2 30 0 40 -3 9 -5 -1 -4 -23z"/>
<path d="M2331 1004 c0 -11 3 -14 6 -6 3 7 2 16 -1 19 -3 4 -6 -2 -5 -13z"/>
<path d="M3025 586 c0 -80 0 -81 25 -81 23 0 25 4 24 43 -3 116 -3 117 -27
118 -21 1 -22 -2 -22 -80z"/>
<path d="M2162 453 c2 -22 8 -28 28 -28 20 0 26 6 28 28 3 24 0 27 -28 27 -28
0 -31 -3 -28 -27z"/>
</g>
</svg>
